# xmcd
#
# Track frame offsets:
#	150
#	16127
#	27527
#	41605
#	59132
#	76877
#	89027
#	106535
#	122265
#	143327
#	159760
#	173270
#
# Disc length: 2490 seconds
#
# Revision: 1
# Processed by: cddbd v1.5.2PL0 Copyright (c) Steve Scherf et al.
# Submitted via: audiograbber 1.83.01
#
DISCID=8109b80c
DTITLE=Shellee-Ann Kellee - Take A Ride With Me Shellee-Ann Kellee
DYEAR=1900
DGENRE=
TTITLE0=Take A Ride
TTITLE1=Too Much Fun
TTITLE2=Romeo
TTITLE3=We´ve Been, Down This Road Before
TTITLE4=I Saw The Light
TTITLE5=Does Everybody Cheat
TTITLE6=Summer Lover
TTITLE7=Born To Be Blue
TTITLE8=Back In Time
TTITLE9=To Each His Own
TTITLE10=A Little Bit Of Love
TTITLE11=The More I See You
EXTD=
EXTT0=
EXTT1=
EXTT2=
EXTT3=
EXTT4=
EXTT5=
EXTT6=
EXTT7=
EXTT8=
EXTT9=
EXTT10=
EXTT11=
PLAYORDER=
